<svg width="25" height="24" viewBox="0 0 25 24" fill="none" xmlns="http://www.w3.org/2000/svg">
<path fill-rule="evenodd" clip-rule="evenodd" d="M7.94827 12C7.94827 11.4804 8.03452 10.9821 8.18865 10.5149L5.4924 8.45599C4.9669 9.52287 4.6709 10.7251 4.6709 12C4.6709 13.2739 4.96665 14.4752 5.49127 15.5415L8.18602 13.4786C8.0334 13.0135 7.94827 12.5171 7.94827 12Z" fill="#FBBC05"/>
<path fill-rule="evenodd" clip-rule="evenodd" d="M12.6821 7.27275C13.8109 7.27275 14.8306 7.67275 15.6317 8.32725L17.9622 6C16.5421 4.76363 14.7213 4 12.6821 4C9.51606 4 6.79506 5.8105 5.49219 8.456L8.18831 10.5149C8.80956 8.62912 10.5804 7.27275 12.6821 7.27275Z" fill="#EA4335"/>
<path fill-rule="evenodd" clip-rule="evenodd" d="M12.6821 16.7273C10.5806 16.7273 8.80969 15.3709 8.18844 13.4851L5.49219 15.5436C6.79506 18.1895 9.51606 20 12.6821 20C14.6361 20 16.5017 19.3061 17.9018 18.0061L15.3426 16.0276C14.6204 16.4825 13.7111 16.7273 12.6821 16.7273Z" fill="#34A853"/>
<path fill-rule="evenodd" clip-rule="evenodd" d="M20.3288 12C20.3288 11.5273 20.2559 11.0181 20.1466 10.5455H12.6816V13.6364H16.9786C16.7638 14.6903 16.179 15.5004 15.3421 16.0276L17.9014 18.0061C19.3721 16.6411 20.3288 14.6076 20.3288 12Z" fill="#4285F4"/>
</svg>
